<?xml version="1.0" encoding="utf-8" ?><svg xmlns="http://www.w3.org/2000/svg" xmlns:xlink="http://www.w3.org/1999/xlink" width="96" height="96"><defs><linearGradient id="gradient_0" gradientTransform="matrix(0 50 -50 0 0 0)" gradientUnits="userSpaceOnUse" x1="0" y1="0" x2="1" y2="0"><stop offset="0" stop-color="#2A2D33"/><stop offset="1" stop-color="#15171B"/></linearGradient></defs><rect fill="url(#gradient_0)" transform="matrix(1 0 0 1 8 38)" width="18" height="50" rx="6" ry="6"/><defs><linearGradient id="gradient_1" gradientTransform="matrix(0 50 -50 0 0 0)" gradientUnits="userSpaceOnUse" x1="0" y1="0" x2="1" y2="0"><stop offset="0" stop-color="#2A2D33"/><stop offset="1" stop-color="#15171B"/></linearGradient></defs><rect fill="url(#gradient_1)" transform="matrix(1 0 0 1 70 38)" width="18" height="50" rx="6" ry="6"/><g opacity="0.85"><clipPath id="clip_0"><rect x="15" y="44" width="67" height="35"/></clipPath><g clip-path="url(#clip_0)"><g opacity="0.85"><circle fill="#9AA0AA" transform="matrix(1 0 0 1 15.2 44.2)" cx="1.8" cy="1.8" r="1.8"/></g></g><clipPath id="clip_1"><rect x="15" y="44" width="67" height="35"/></clipPath><g clip-path="url(#clip_1)"><g opacity="0.85"><circle fill="#9AA0AA" transform="matrix(1 0 0 1 15.2 54.2)" cx="1.8" cy="1.8" r="1.8"/></g></g><clipPath id="clip_2"><rect x="15" y="44" width="67" height="35"/></clipPath><g clip-path="url(#clip_2)"><g opacity="0.85"><circle fill="#9AA0AA" transform="matrix(1 0 0 1 15.2 64.2)" cx="1.8" cy="1.8" r="1.8"/></g></g><clipPath id="clip_3"><rect x="15" y="44" width="67" height="35"/></clipPath><g clip-path="url(#clip_3)"><g opacity="0.85"><circle fill="#9AA0AA" transform="matrix(1 0 0 1 15.2 74.2)" cx="1.8" cy="1.8" r="1.8"/></g></g><clipPath id="clip_4"><rect x="15" y="44" width="67" height="35"/></clipPath><g clip-path="url(#clip_4)"><g opacity="0.85"><circle fill="#9AA0AA" transform="matrix(1 0 0 1 77.2 44.2)" cx="1.8" cy="1.8" r="1.8"/></g></g><clipPath id="clip_5"><rect x="15" y="44" width="67" height="35"/></clipPath><g clip-path="url(#clip_5)"><g opacity="0.85"><circle fill="#9AA0AA" transform="matrix(1 0 0 1 77.2 54.2)" cx="1.8" cy="1.8" r="1.8"/></g></g><clipPath id="clip_6"><rect x="15" y="44" width="67" height="35"/></clipPath><g clip-path="url(#clip_6)"><g opacity="0.85"><circle fill="#9AA0AA" transform="matrix(1 0 0 1 77.2 64.2)" cx="1.8" cy="1.8" r="1.8"/></g></g><clipPath id="clip_7"><rect x="15" y="44" width="67" height="35"/></clipPath><g clip-path="url(#clip_7)"><g opacity="0.85"><circle fill="#9AA0AA" transform="matrix(1 0 0 1 77.2 74.2)" cx="1.8" cy="1.8" r="1.8"/></g></g></g><defs><linearGradient id="gradient_2" gradientTransform="matrix(0 40 -40 0 0 0)" gradientUnits="userSpaceOnUse" x1="0" y1="0" x2="1" y2="0"><stop offset="0" stop-color="#2A2D33"/><stop offset="1" stop-color="#15171B"/></linearGradient></defs><rect fill="url(#gradient_2)" transform="matrix(1 0 0 1 44 8)" width="8" height="40" rx="3" ry="3"/><g opacity="0.5"><rect fill="#AEB4BE" transform="matrix(1 0 0 1 45.5 10)" width="2" height="34"/></g><defs><linearGradient id="gradient_3" gradientTransform="matrix(0 56 -56 0 0 0)" gradientUnits="userSpaceOnUse" x1="0" y1="0" x2="1" y2="0"><stop offset="0" stop-color="#7C828C"/><stop offset="0.5" stop-color="#565C66"/><stop offset="1" stop-color="#363B43"/></linearGradient></defs><rect fill="url(#gradient_3)" transform="matrix(1 0 0 1 22 34)" width="52" height="56" rx="10" ry="10"/><g opacity="0.18"><rect fill="#FFF" transform="matrix(1 0 0 1 26 37)" width="44" height="12" rx="6" ry="6"/></g><circle fill="#2C3038" transform="matrix(1 0 0 1 28 42)" cx="2" cy="2" r="2"/><circle fill="#2C3038" transform="matrix(1 0 0 1 64 42)" cx="2" cy="2" r="2"/><circle fill="#2C3038" transform="matrix(1 0 0 1 28 78)" cx="2" cy="2" r="2"/><circle fill="#2C3038" transform="matrix(1 0 0 1 64 78)" cx="2" cy="2" r="2"/><defs><radialGradient id="gradient_4" gradientTransform="matrix(53.2736 0 0 53.2736 16 12.6)" gradientUnits="userSpaceOnUse" r="0.5" cx="0" cy="0"><stop offset="0" stop-color="#9AA0AA"/><stop offset="1" stop-color="#444A53"/></radialGradient></defs><ellipse fill="url(#gradient_4)" transform="matrix(1 0 0 1 28 38)" cx="20" cy="18" rx="20" ry="18"/><ellipse fill="none" stroke="#2C3038" stroke-width="1.5" transform="matrix(1 0 0 1 28 38)" cx="20" cy="18" rx="20" ry="18"/><g opacity="0.25"><ellipse fill="#FFF" transform="matrix(1 0 0 1 38 45.4)" cx="4" cy="3.6" rx="4" ry="3.6"/></g><ellipse fill="#FFE08A" transform="matrix(1 0 0 1 38 51.6)" cx="3" cy="3.4" rx="3" ry="3.4"/><ellipse fill="#FFE08A" transform="matrix(1 0 0 1 52 51.6)" cx="3" cy="3.4" rx="3" ry="3.4"/><circle fill="#2A1E00" transform="matrix(1 0 0 1 40 54.5)" cx="1.5" cy="1.5" r="1.5"/><circle fill="#2A1E00" transform="matrix(1 0 0 1 53 54.5)" cx="1.5" cy="1.5" r="1.5"/><path fill="#1F2228" transform="matrix(1 0 0 1 35 50)" d="M11.4272 2.8253L0.4272 -1.1747Q-0.0601 -1.368 -0.5286 -1.1327Q-1.0098 -0.9248 -1.1747 -0.4272Q-1.368 0.0601 -1.1327 0.5286Q-0.9248 1.0098 -0.4272 1.1747L10.5728 5.1747Q11.0601 5.368 11.5286 5.1327Q12.0098 4.9248 12.1747 4.4272Q12.368 3.9399 12.1327 3.4714Q11.9248 2.9902 11.4272 2.8253Z" fill-rule="evenodd"/><path fill="#1F2228" transform="matrix(1 0 0 1 50 50)" d="M0.4272 5.1747L11.4272 1.1747Q11.9248 1.0098 12.1327 0.5286Q12.368 0.0601 12.1747 -0.4272Q12.0098 -0.9248 11.5286 -1.1327Q11.0601 -1.368 10.5728 -1.1747L-0.4272 2.8253Q-0.9248 2.9902 -1.1327 3.4714Q-1.368 3.9399 -1.1747 4.4272Q-1.0098 4.9248 -0.5286 5.1327Q-0.0601 5.368 0.4272 5.1747Z" fill-rule="evenodd"/></svg>