<?xml version="1.0" encoding="utf-8" ?><svg xmlns="http://www.w3.org/2000/svg" xmlns:xlink="http://www.w3.org/1999/xlink" width="100" height="100"><clipPath id="clip_0"><rect x="2" y="2" width="96" height="96"/></clipPath><g clip-path="url(#clip_0)"></g><defs><linearGradient id="gradient_0" gradientTransform="matrix(0 54 -54 0 0 0)" gradientUnits="userSpaceOnUse" x1="0" y1="0" x2="1" y2="0"><stop offset="0" stop-color="#5A140E"/><stop offset="1" stop-color="#2B0A06"/></linearGradient></defs><path fill="url(#gradient_0)" transform="matrix(1 0 0 1 10 36)" d="M2 8L16 0L16 48L4 54L0 36L2 8Z"/><defs><linearGradient id="gradient_1" gradientTransform="matrix(0 54 -54 0 0 0)" gradientUnits="userSpaceOnUse" x1="0" y1="0" x2="1" y2="0"><stop offset="0" stop-color="#5A140E"/><stop offset="1" stop-color="#2B0A06"/></linearGradient></defs><path fill="url(#gradient_1)" transform="matrix(1 0 0 1 74 36)" d="M14 8L0 0L0 48L12 54L16 36L14 8Z"/><clipPath id="clip_1"><rect x="2" y="2" width="96" height="96"/></clipPath><g clip-path="url(#clip_1)"><g opacity="0.7"><clipPath id="clip_2"><rect x="14" y="50" width="72" height="23"/></clipPath><g clip-path="url(#clip_2)"><g opacity="0.7"><rect fill="#7A1A12" transform="matrix(1 0 0 1 14 50)" width="11" height="3"/></g></g><clipPath id="clip_3"><rect x="14" y="50" width="72" height="23"/></clipPath><g clip-path="url(#clip_3)"><g opacity="0.7"><rect fill="#7A1A12" transform="matrix(1 0 0 1 14 60)" width="11" height="3"/></g></g><clipPath id="clip_4"><rect x="14" y="50" width="72" height="23"/></clipPath><g clip-path="url(#clip_4)"><g opacity="0.7"><rect fill="#7A1A12" transform="matrix(1 0 0 1 14 70)" width="11" height="3"/></g></g><clipPath id="clip_5"><rect x="14" y="50" width="72" height="23"/></clipPath><g clip-path="url(#clip_5)"><g opacity="0.7"><rect fill="#7A1A12" transform="matrix(1 0 0 1 75 50)" width="11" height="3"/></g></g><clipPath id="clip_6"><rect x="14" y="50" width="72" height="23"/></clipPath><g clip-path="url(#clip_6)"><g opacity="0.7"><rect fill="#7A1A12" transform="matrix(1 0 0 1 75 60)" width="11" height="3"/></g></g><clipPath id="clip_7"><rect x="14" y="50" width="72" height="23"/></clipPath><g clip-path="url(#clip_7)"><g opacity="0.7"><rect fill="#7A1A12" transform="matrix(1 0 0 1 75 70)" width="11" height="3"/></g></g></g></g><defs><linearGradient id="gradient_2" gradientTransform="matrix(0 42 -42 0 0 0)" gradientUnits="userSpaceOnUse" x1="0" y1="0" x2="1" y2="0"><stop offset="0" stop-color="#5A140E"/><stop offset="1" stop-color="#2B0A06"/></linearGradient></defs><rect fill="url(#gradient_2)" transform="matrix(1 0 0 1 46 10)" width="8" height="42" rx="3" ry="3"/><clipPath id="clip_8"><rect x="2" y="2" width="96" height="96"/></clipPath><g clip-path="url(#clip_8)"><g opacity="0.6"><rect fill="#FF9D90" transform="matrix(1 0 0 1 47.5 12)" width="2" height="36"/></g></g><defs><linearGradient id="gradient_3" gradientTransform="matrix(0 54 -54 0 0 0)" gradientUnits="userSpaceOnUse" x1="0" y1="0" x2="1" y2="0"><stop offset="0" stop-color="#FF7A6B"/><stop offset="0.5" stop-color="#E23B2C"/><stop offset="1" stop-color="#A81E12"/></linearGradient></defs><rect fill="url(#gradient_3)" transform="matrix(1 0 0 1 24 38)" width="52" height="54" rx="14" ry="14"/><clipPath id="clip_9"><rect x="2" y="2" width="96" height="96"/></clipPath><g clip-path="url(#clip_9)"><g opacity="0.25"><rect fill="#FFF" transform="matrix(1 0 0 1 28 41)" width="44" height="14" rx="7" ry="7"/></g></g><defs><radialGradient id="gradient_4" gradientTransform="matrix(53.2736 0 0 53.2736 16 12.6)" gradientUnits="userSpaceOnUse" r="0.5" cx="0" cy="0"><stop offset="0" stop-color="#FFB3A6"/><stop offset="1" stop-color="#C4201A"/></radialGradient></defs><ellipse fill="url(#gradient_4)" transform="matrix(1 0 0 1 30 40)" cx="20" cy="18" rx="20" ry="18"/><ellipse fill="none" stroke="#8A160E" stroke-width="1.5" transform="matrix(1 0 0 1 30 40)" cx="20" cy="18" rx="20" ry="18"/><clipPath id="clip_10"><rect x="2" y="2" width="96" height="96"/></clipPath><g clip-path="url(#clip_10)"><g opacity="0.3"><ellipse fill="#FFF" transform="matrix(1 0 0 1 39.5 47)" cx="4.5" cy="4" rx="4.5" ry="4"/></g></g><ellipse fill="#FFF" transform="matrix(1 0 0 1 39.8 53.4)" cx="3.2" cy="3.6" rx="3.2" ry="3.6"/><ellipse fill="#FFF" transform="matrix(1 0 0 1 53.8 53.4)" cx="3.2" cy="3.6" rx="3.2" ry="3.6"/><circle fill="#3A0A06" transform="matrix(1 0 0 1 41.9 56.4)" cx="1.6" cy="1.6" r="1.6"/><circle fill="#3A0A06" transform="matrix(1 0 0 1 54.9 56.4)" cx="1.6" cy="1.6" r="1.6"/><path fill="#5A0E08" transform="matrix(1 0 0 1 37 52)" d="M11.4272 2.8253L0.4272 -1.1747Q-0.0601 -1.368 -0.5286 -1.1327Q-1.0098 -0.9248 -1.1747 -0.4272Q-1.368 0.0601 -1.1327 0.5286Q-0.9248 1.0098 -0.4272 1.1747L10.5728 5.1747Q11.0601 5.368 11.5286 5.1327Q12.0098 4.9248 12.1747 4.4272Q12.368 3.9399 12.1327 3.4714Q11.9248 2.9902 11.4272 2.8253Z" fill-rule="evenodd"/><path fill="#5A0E08" transform="matrix(1 0 0 1 52 52)" d="M0.4272 5.1747L11.4272 1.1747Q11.9248 1.0098 12.1327 0.5286Q12.368 0.0601 12.1747 -0.4272Q12.0098 -0.9248 11.5286 -1.1327Q11.0601 -1.368 10.5728 -1.1747L-0.4272 2.8253Q-0.9248 2.9902 -1.1327 3.4714Q-1.368 3.9399 -1.1747 4.4272Q-1.0098 4.9248 -0.5286 5.1327Q-0.0601 5.368 0.4272 5.1747Z" fill-rule="evenodd"/><clipPath id="clip_11"><rect x="2" y="2" width="96" height="96"/></clipPath><g clip-path="url(#clip_11)"><g opacity="0.16"><rect fill="#9A9A9A" transform="matrix(1 0 0 1 24 38)" width="52" height="54" rx="14" ry="14"/></g></g><clipPath id="clip_12"><rect x="2" y="2" width="96" height="96"/></clipPath><g clip-path="url(#clip_12)"><g opacity="0.55"><path fill="#1A1A1A" transform="matrix(1 0 0 1 36 52)" d="M11.4706 7.353L0.4706 -0.647L-0.4706 0.647L9.6535 8.0099L2.52 13.36L3.48 14.64L12.3465 7.9901L11.4706 7.353Z" fill-rule="evenodd"/></g></g><clipPath id="clip_13"><rect x="2" y="2" width="96" height="96"/></clipPath><g clip-path="url(#clip_13)"><g opacity="0.55"><path fill="#1A1A1A" transform="matrix(1 0 0 1 56 50)" d="M1.2065 7.9249L8.5657 0.5657L7.4343 -0.5657L-0.5657 7.4343L-1.2065 8.0751L8.5089 15.6315L9.4911 14.3685L1.2065 7.9249Z" fill-rule="evenodd"/></g></g></svg>