<svg xmlns="http://www.w3.org/2000/svg" width="96" height="96" viewBox="0 0 96 96"><defs><linearGradient id="ifbg" x1="0" y1="0" x2="0" y2="1"><stop offset="0" stop-color="#3A5AD8"/><stop offset="0.55" stop-color="#28409E"/><stop offset="1" stop-color="#182668"/></linearGradient><linearGradient id="ifgold" x1="0" y1="0" x2="0" y2="1"><stop offset="0" stop-color="#FFE9A8"/><stop offset="0.5" stop-color="#F4C430"/><stop offset="1" stop-color="#B8841A"/></linearGradient><radialGradient id="ifhalo" cx="0.5" cy="0.5" r="0.5"><stop offset="0" stop-color="#FFF3C8" stop-opacity="0.6"/><stop offset="0.6" stop-color="#FFD23F" stop-opacity="0.16"/><stop offset="1" stop-color="#FFD23F" stop-opacity="0"/></radialGradient></defs><circle cx="48" cy="48" r="46" fill="url(#ifhalo)"/><path d="M48 6 L87.95 35.02 L72.69 81.98 L23.31 81.98 L8.06 35.02 Z" fill="url(#ifbg)" stroke="url(#ifgold)" stroke-width="3" stroke-linejoin="round"/><ellipse cx="48" cy="30" rx="24" ry="11" fill="#FFFFFF" opacity="0.10"/><path d="M48 12 L82.24 36.88 L69.16 77.13 L26.84 77.13 L13.76 36.88 Z" fill="none" stroke="#FFE9A8" stroke-width="0.8" opacity="0.5"/><g stroke="#14245e" stroke-width="7.5" stroke-linecap="round" fill="none"><path d="M48 48 L48 21 M48 48 L71.38 34.5 M48 48 L71.38 61.5 M48 48 L48 75 M48 48 L24.62 61.5 M48 48 L24.62 34.5 M48 34.5 L54.64 29.85 M48 34.5 L41.36 29.85 M48 26.94 L54.64 22.29 M48 26.94 L41.36 22.29 M59.69 41.25 L67.03 44.67 M59.69 41.25 L60.4 33.18 M66.24 37.47 L73.58 40.89 M66.24 37.47 L66.94 29.4 M59.69 54.75 L60.4 62.82 M59.69 54.75 L67.03 51.33 M66.24 58.53 L66.94 66.6 M66.24 58.53 L73.58 55.11 M48 61.5 L41.36 66.15 M48 61.5 L54.64 66.15 M48 69.06 L41.36 73.71 M48 69.06 L54.64 73.71 M36.31 54.75 L28.97 51.33 M36.31 54.75 L35.6 62.82 M29.76 58.53 L22.42 55.11 M29.76 58.53 L29.06 66.6 M36.31 41.25 L35.6 33.18 M36.31 41.25 L28.97 44.67 M29.76 37.47 L29.06 29.4 M29.76 37.47 L22.42 40.89 "/></g><g stroke="#F4FBFF" stroke-width="4.5" stroke-linecap="round" fill="none"><path d="M48 48 L48 21 M48 48 L71.38 34.5 M48 48 L71.38 61.5 M48 48 L48 75 M48 48 L24.62 61.5 M48 48 L24.62 34.5 "/></g><g stroke="#DFF3FF" stroke-width="3" stroke-linecap="round" fill="none"><path d="M48 34.5 L54.64 29.85 M48 34.5 L41.36 29.85 M48 26.94 L54.64 22.29 M48 26.94 L41.36 22.29 M59.69 41.25 L67.03 44.67 M59.69 41.25 L60.4 33.18 M66.24 37.47 L73.58 40.89 M66.24 37.47 L66.94 29.4 M59.69 54.75 L60.4 62.82 M59.69 54.75 L67.03 51.33 M66.24 58.53 L66.94 66.6 M66.24 58.53 L73.58 55.11 M48 61.5 L41.36 66.15 M48 61.5 L54.64 66.15 M48 69.06 L41.36 73.71 M48 69.06 L54.64 73.71 M36.31 54.75 L28.97 51.33 M36.31 54.75 L35.6 62.82 M29.76 58.53 L22.42 55.11 M29.76 58.53 L29.06 66.6 M36.31 41.25 L35.6 33.18 M36.31 41.25 L28.97 44.67 M29.76 37.47 L29.06 29.4 M29.76 37.47 L22.42 40.89 "/></g><circle cx="48" cy="48" r="3.4" fill="#F4FBFF" stroke="#14245e" stroke-width="1.2"/></svg>
