<?xml version="1.0" encoding="utf-8" ?><svg xmlns="http://www.w3.org/2000/svg" xmlns:xlink="http://www.w3.org/1999/xlink" width="96" height="96"><defs><radialGradient id="gradient_0" gradientTransform="matrix(65.28 0 0 65.28 32.64 32.64)" gradientUnits="userSpaceOnUse" r="0.5" cx="0" cy="0"><stop offset="0" stop-color="#FFF3C4" stop-opacity="0.949"/><stop offset="1" stop-color="#F4C430" stop-opacity="0"/></radialGradient></defs><circle fill="url(#gradient_0)" fill-opacity="1" transform="matrix(1 0 0 1 15.36 15.36)" cx="32.64" cy="32.64" r="32.64"/><g opacity="0.85"><clipPath id="clip_0"><rect x="11" y="11" width="74" height="74"/></clipPath><g clip-path="url(#clip_0)"><g opacity="0.85"><path fill="#FFE9A8" transform="matrix(1 0 0 1 48 13.44)" d="M1.44 11.52L1.44 0Q1.4574 -0.6037 1.0182 -1.0182Q0.6037 -1.4574 0 -1.44Q-0.6037 -1.4574 -1.0182 -1.0182Q-1.4574 -0.6037 -1.44 0L-1.44 11.52Q-1.4574 12.1237 -1.0182 12.5382Q-0.6037 12.9774 0 12.96Q0.6037 12.9774 1.0182 12.5382Q1.4574 12.1237 1.44 11.52Z" fill-rule="evenodd"/></g></g><clipPath id="clip_1"><rect x="11" y="11" width="74" height="74"/></clipPath><g clip-path="url(#clip_1)"><g opacity="0.85"><path fill="#FFE9A8" transform="matrix(1 0 0 1 48 71.04)" d="M1.44 11.52L1.44 0Q1.4574 -0.6037 1.0182 -1.0182Q0.6037 -1.4574 0 -1.44Q-0.6037 -1.4574 -1.0182 -1.0182Q-1.4574 -0.6037 -1.44 0L-1.44 11.52Q-1.4574 12.1237 -1.0182 12.5382Q-0.6037 12.9774 0 12.96Q0.6037 12.9774 1.0182 12.5382Q1.4574 12.1237 1.44 11.52Z" fill-rule="evenodd"/></g></g><clipPath id="clip_2"><rect x="11" y="11" width="74" height="74"/></clipPath><g clip-path="url(#clip_2)"><g opacity="0.85"><path fill="#FFE9A8" transform="matrix(1 0 0 1 13.44 48)" d="M11.52 -1.44L0 -1.44Q-0.6037 -1.4574 -1.0182 -1.0182Q-1.4574 -0.6037 -1.44 0Q-1.4574 0.6037 -1.0182 1.0182Q-0.6037 1.4574 0 1.44L11.52 1.44Q12.1237 1.4574 12.5382 1.0182Q12.9774 0.6037 12.96 0Q12.9774 -0.6037 12.5382 -1.0182Q12.1237 -1.4574 11.52 -1.44Z" fill-rule="evenodd"/></g></g><clipPath id="clip_3"><rect x="11" y="11" width="74" height="74"/></clipPath><g clip-path="url(#clip_3)"><g opacity="0.85"><path fill="#FFE9A8" transform="matrix(1 0 0 1 71.04 48)" d="M11.52 -1.44L0 -1.44Q-0.6037 -1.4574 -1.0182 -1.0182Q-1.4574 -0.6037 -1.44 0Q-1.4574 0.6037 -1.0182 1.0182Q-0.6037 1.4574 0 1.44L11.52 1.44Q12.1237 1.4574 12.5382 1.0182Q12.9774 0.6037 12.96 0Q12.9774 -0.6037 12.5382 -1.0182Q12.1237 -1.4574 11.52 -1.44Z" fill-rule="evenodd"/></g></g><clipPath id="clip_4"><rect x="11" y="11" width="74" height="74"/></clipPath><g clip-path="url(#clip_4)"><g opacity="0.85"><path fill="#FFE9A8" transform="matrix(1 0 0 1 23.04 23.04)" d="M8.6982 6.6618L1.0182 -1.0182Q0.6037 -1.4574 0 -1.44Q-0.6037 -1.4574 -1.0182 -1.0182Q-1.4574 -0.6037 -1.44 0Q-1.4574 0.6037 -1.0182 1.0182L6.6618 8.6982Q7.0763 9.1374 7.68 9.12Q8.2837 9.1374 8.6982 8.6982Q9.1374 8.2837 9.12 7.68Q9.1374 7.0763 8.6982 6.6618Z" fill-rule="evenodd"/></g></g><clipPath id="clip_5"><rect x="11" y="11" width="74" height="74"/></clipPath><g clip-path="url(#clip_5)"><g opacity="0.85"><path fill="#FFE9A8" transform="matrix(1 0 0 1 65.28 23.04)" d="M1.0182 8.6982L8.6982 1.0182Q9.1374 0.6037 9.12 0Q9.1374 -0.6037 8.6982 -1.0182Q8.2837 -1.4574 7.68 -1.44Q7.0763 -1.4574 6.6618 -1.0182L-1.0182 6.6618Q-1.4574 7.0763 -1.44 7.68Q-1.4574 8.2837 -1.0182 8.6982Q-0.6037 9.1374 0 9.12Q0.6037 9.1374 1.0182 8.6982Z" fill-rule="evenodd"/></g></g><clipPath id="clip_6"><rect x="11" y="11" width="74" height="74"/></clipPath><g clip-path="url(#clip_6)"><g opacity="0.85"><path fill="#FFE9A8" transform="matrix(1 0 0 1 23.04 65.28)" d="M6.6618 -1.0182L-1.0182 6.6618Q-1.4574 7.0763 -1.44 7.68Q-1.4574 8.2837 -1.0182 8.6982Q-0.6037 9.1374 0 9.12Q0.6037 9.1374 1.0182 8.6982L8.6982 1.0182Q9.1374 0.6037 9.12 0Q9.1374 -0.6037 8.6982 -1.0182Q8.2837 -1.4574 7.68 -1.44Q7.0763 -1.4574 6.6618 -1.0182Z" fill-rule="evenodd"/></g></g><clipPath id="clip_7"><rect x="11" y="11" width="74" height="74"/></clipPath><g clip-path="url(#clip_7)"><g opacity="0.85"><path fill="#FFE9A8" transform="matrix(1 0 0 1 65.28 65.28)" d="M-1.0182 1.0182L6.6618 8.6982Q7.0763 9.1374 7.68 9.12Q8.2837 9.1374 8.6982 8.6982Q9.1374 8.2837 9.12 7.68Q9.1374 7.0763 8.6982 6.6618L1.0182 -1.0182Q0.6037 -1.4574 0 -1.44Q-0.6037 -1.4574 -1.0182 -1.0182Q-1.4574 -0.6037 -1.44 0Q-1.4574 0.6037 -1.0182 1.0182Z" fill-rule="evenodd"/></g></g></g><defs><linearGradient id="gradient_1" gradientTransform="matrix(0 57.6 -57.6 0 0 0)" gradientUnits="userSpaceOnUse" x1="0" y1="0" x2="1" y2="0"><stop offset="0" stop-color="#FFE488"/><stop offset="0.5" stop-color="#F4C430"/><stop offset="1" stop-color="#D49A00"/></linearGradient></defs><path fill="url(#gradient_1)" transform="matrix(1 0 0 1 19.2 21.12)" d="M28.8 0L36.48 21.12L57.6 23.04L40.32 36.48L46.08 57.6L28.8 44.16L11.52 57.6L17.28 36.48L0 23.04L21.12 21.12L28.8 0Z"/><path fill="#D49A00" transform="matrix(1 0 0 1 19.2 21.12)" d="M37.0004 20.4443L29.4767 -0.2461Q29.3817 -0.5327 29.1045 -0.6525Q28.8346 -0.788 28.554 -0.6767Q28.4034 -0.6228 28.2909 -0.5091Q28.1772 -0.3966 28.1234 -0.2461L20.5996 20.4443L-0.0652 22.323Q-0.3666 22.3416 -0.5531 22.5791Q-0.753 22.8054 -0.717 23.1052Q-0.7041 23.2543 -0.6318 23.3853Q-0.5606 23.5169 -0.442 23.6083L16.4591 36.7536L10.8254 57.4106Q10.7376 57.6995 10.8949 57.9572Q11.0371 58.2236 11.3306 58.2946Q11.4945 58.3404 11.6612 58.306Q11.8283 58.2737 11.962 58.1683L28.8 45.0721L45.638 58.1683Q45.8709 58.3605 46.1693 58.3145Q46.4699 58.2856 46.6483 58.042Q46.7537 57.9083 46.786 57.7412Q46.8204 57.5745 46.7746 57.4106L41.1409 36.7536L58.042 23.6083Q58.2856 23.4299 58.3145 23.1293Q58.3605 22.8309 58.1683 22.598Q58.077 22.4794 57.9453 22.4082Q57.8143 22.3359 57.6652 22.323L37.0004 20.4443ZM28.8 2.1068L35.8033 21.3661Q35.8729 21.5641 36.0406 21.6904Q36.2055 21.8203 36.4148 21.837L55.7177 23.5919L39.878 35.9117Q39.7036 36.0439 39.637 36.2523Q39.5652 36.459 39.6254 36.6694L44.817 55.7056L29.242 43.5917Q29.0485 43.4357 28.8 43.44Q28.5515 43.4357 28.358 43.5917L12.783 55.7056L17.9746 36.6694Q18.0348 36.459 17.963 36.2523Q17.8964 36.0439 17.722 35.9117L1.8823 23.5919L21.1852 21.837Q21.3945 21.8203 21.5594 21.6904Q21.7271 21.5641 21.7967 21.3661L28.8 2.1068Z" fill-rule="evenodd"/><g opacity="0.85"><circle fill="#FFF6D2" transform="matrix(1 0 0 1 37.44 39.36)" cx="4.8" cy="4.8" r="4.8"/></g><g opacity="0.9"><clipPath id="clip_8"><rect x="15" y="28" width="70" height="42"/></clipPath><g clip-path="url(#clip_8)"><g opacity="0.9"><path fill="#FFF" transform="matrix(1 0 0 1 73.44 28.8)" d="M5.28 0L6.72 3.84L10.56 5.28L6.72 6.72L5.28 10.56L3.84 6.72L0 5.28L3.84 3.84L5.28 0Z"/></g></g><clipPath id="clip_9"><rect x="15" y="28" width="70" height="42"/></clipPath><g clip-path="url(#clip_9)"><g opacity="0.9"><path fill="#FFF" transform="matrix(1 0 0 1 15.36 61.44)" d="M3.84 0L4.8 2.88L7.68 3.84L4.8 4.8L3.84 7.68L2.88 4.8L0 3.84L2.88 2.88L3.84 0Z"/></g></g></g></svg>