<svg xmlns="http://www.w3.org/2000/svg" width="96" height="96" viewBox="0 0 96 96"><defs><linearGradient id="p2body" x1="0" y1="0" x2="0" y2="1"><stop offset="0" stop-color="#BFE0FF"/><stop offset="0.5" stop-color="#3D9BF5"/><stop offset="1" stop-color="#2C6FB8"/></linearGradient><linearGradient id="p2tur" x1="0" y1="0" x2="0" y2="1"><stop offset="0" stop-color="#5BA8F0"/><stop offset="1" stop-color="#21508F"/></linearGradient></defs><rect x="15" y="20" width="15" height="58" rx="4" fill="#141414"/><rect x="15" y="20" width="15" height="58" rx="4" fill="none" stroke="#000" stroke-width="1"/><rect x="16" y="22" width="13" height="5.5" rx="1.5" fill="#8d8d8d"/><rect x="16" y="22" width="13" height="2" rx="1" fill="#d2d2d2"/><rect x="16" y="30" width="13" height="5.5" rx="1.5" fill="#8d8d8d"/><rect x="16" y="30" width="13" height="2" rx="1" fill="#d2d2d2"/><rect x="16" y="38" width="13" height="5.5" rx="1.5" fill="#8d8d8d"/><rect x="16" y="38" width="13" height="2" rx="1" fill="#d2d2d2"/><rect x="16" y="46" width="13" height="5.5" rx="1.5" fill="#8d8d8d"/><rect x="16" y="46" width="13" height="2" rx="1" fill="#d2d2d2"/><rect x="16" y="54" width="13" height="5.5" rx="1.5" fill="#8d8d8d"/><rect x="16" y="54" width="13" height="2" rx="1" fill="#d2d2d2"/><rect x="16" y="62" width="13" height="5.5" rx="1.5" fill="#8d8d8d"/><rect x="16" y="62" width="13" height="2" rx="1" fill="#d2d2d2"/><rect x="16" y="70" width="13" height="5.5" rx="1.5" fill="#8d8d8d"/><rect x="16" y="70" width="13" height="2" rx="1" fill="#d2d2d2"/><rect x="15" y="20" width="15" height="3" rx="1.5" fill="#c6c6c6"/><rect x="15" y="75" width="15" height="3" rx="1.5" fill="#000" opacity="0.55"/><rect x="66" y="20" width="15" height="58" rx="4" fill="#141414"/><rect x="66" y="20" width="15" height="58" rx="4" fill="none" stroke="#000" stroke-width="1"/><rect x="67" y="22" width="13" height="5.5" rx="1.5" fill="#8d8d8d"/><rect x="67" y="22" width="13" height="2" rx="1" fill="#d2d2d2"/><rect x="67" y="30" width="13" height="5.5" rx="1.5" fill="#8d8d8d"/><rect x="67" y="30" width="13" height="2" rx="1" fill="#d2d2d2"/><rect x="67" y="38" width="13" height="5.5" rx="1.5" fill="#8d8d8d"/><rect x="67" y="38" width="13" height="2" rx="1" fill="#d2d2d2"/><rect x="67" y="46" width="13" height="5.5" rx="1.5" fill="#8d8d8d"/><rect x="67" y="46" width="13" height="2" rx="1" fill="#d2d2d2"/><rect x="67" y="54" width="13" height="5.5" rx="1.5" fill="#8d8d8d"/><rect x="67" y="54" width="13" height="2" rx="1" fill="#d2d2d2"/><rect x="67" y="62" width="13" height="5.5" rx="1.5" fill="#8d8d8d"/><rect x="67" y="62" width="13" height="2" rx="1" fill="#d2d2d2"/><rect x="67" y="70" width="13" height="5.5" rx="1.5" fill="#8d8d8d"/><rect x="67" y="70" width="13" height="2" rx="1" fill="#d2d2d2"/><rect x="66" y="20" width="15" height="3" rx="1.5" fill="#c6c6c6"/><rect x="66" y="75" width="15" height="3" rx="1.5" fill="#000" opacity="0.55"/><rect x="30" y="26" width="36" height="46" rx="11" fill="url(#p2body)"/><rect x="34" y="29" width="28" height="6" rx="3" fill="rgba(255,255,255,0.25)"/><rect x="34" y="32" width="28" height="28" rx="7" fill="url(#p2tur)"/><rect x="44" y="10" width="8" height="24" rx="3" fill="#21508F"/><rect x="43" y="10" width="10" height="5" rx="2" fill="rgba(0,0,0,0.35)"/><path d="M48 35 L50.7 42.28 L58.46 42.6 L52.37 47.42 L54.47 54.9 L48 50.6 L41.53 54.9 L43.63 47.42 L37.54 42.6 L45.3 42.28 Z" fill="#E6F7FF" stroke="#2C6FB8" stroke-width="1"/></svg>
